# Blender v2.79 (sub 0) OBJ File: 'anvil.blend'
# www.blender.org
mtllib anvil.mtl
o Cube
v 0.783743 -0.484293 -2.332614
v 0.582499 -0.774918 -2.919790
v 0.505754 -0.590960 -2.980157
v 0.770045 -0.689796 -2.626202
v 0.736918 -0.675888 -2.928767
v 0.544127 -0.721038 -3.066074
v 0.689725 -0.482017 -2.684855
v 0.783743 -0.484293 2.332615
v 0.505754 -0.590960 2.980157
v 0.582499 -0.774918 2.919790
v 0.689724 -0.482017 2.684855
v 0.736918 -0.675888 2.928767
v 0.544126 -0.721038 3.066074
v 0.770045 -0.689796 2.626203
v -0.505754 -0.590960 2.980157
v -0.783743 -0.484293 2.332615
v -0.582499 -0.774918 2.919790
v -0.689725 -0.482017 2.684854
v -0.736918 -0.675887 2.928766
v -0.770045 -0.689796 2.626202
v -0.544127 -0.721038 3.066073
v -0.505754 -0.590960 -2.980158
v -0.582499 -0.774918 -2.919791
v -0.783743 -0.484293 -2.332615
v -0.544126 -0.721038 -3.066075
v -0.736918 -0.675888 -2.928768
v -0.770045 -0.689796 -2.626204
v -0.689724 -0.482017 -2.684855
v 0.061535 0.590960 -1.373226
v 0.026802 0.926646 -1.393993
v 0.366951 1.080213 -1.040891
v 0.419705 0.484293 -1.015732
v 0.044168 0.765478 -1.275710
v 0.265512 0.772565 -1.164429
v 0.250753 0.945660 -1.244218
v 0.359009 0.779215 -1.028311
v 0.285596 0.593236 -1.222948
v 0.061534 0.590960 1.373227
v 0.419705 0.484293 1.015734
v 0.366951 1.080213 1.040892
v 0.026802 0.926646 1.393994
v 0.285595 0.593236 1.222949
v 0.265512 0.772565 1.164431
v 0.359009 0.779215 1.028313
v 0.250753 0.945660 1.244219
v 0.044168 0.765478 1.275712
v -0.419705 0.484293 1.015733
v -0.061535 0.590960 1.373227
v -0.026802 0.926646 1.393994
v -0.366951 1.080213 1.040891
v -0.285596 0.593236 1.222949
v -0.265512 0.772565 1.164430
v -0.044168 0.765478 1.275711
v -0.250754 0.945660 1.244219
v -0.359009 0.779215 1.028312
v -0.419705 0.484293 -1.015733
v -0.366951 1.080213 -1.040891
v -0.026802 0.926646 -1.393993
v -0.061535 0.590960 -1.373226
v -0.359009 0.779215 -1.028312
v -0.265512 0.772565 -1.164430
v -0.250753 0.945660 -1.244218
v -0.044168 0.765478 -1.275710
v -0.285596 0.593236 -1.222948
v 0.539011 2.010314 -2.701371
v 0.255678 2.163882 -3.602790
v 0.285013 2.315609 -3.563190
v 0.451221 2.029329 -3.178857
v 0.461784 2.219367 -3.505547
v 0.270346 2.271169 -3.703391
v 0.488010 2.226191 -3.132281
v 0.539010 2.010314 2.701375
v 0.285012 2.315609 3.563193
v 0.255678 2.163882 3.602793
v 0.488009 2.226191 3.132284
v 0.461783 2.219367 3.505551
v 0.270345 2.271169 3.703394
v 0.451221 2.029329 3.178860
v -0.255678 2.163882 -3.602791
v -0.539011 2.010314 -2.701372
v -0.285013 2.315609 -3.563191
v -0.451221 2.029329 -3.178857
v -0.461784 2.219367 -3.505548
v -0.488010 2.226191 -3.132282
v -0.270345 2.271169 -3.703393
v -0.255679 2.163882 3.602791
v -0.285013 2.315609 3.563191
v -0.539011 2.010314 2.701372
v -0.270346 2.271169 3.703393
v -0.461784 2.219367 3.505548
v -0.488010 2.226191 3.132282
v -0.451222 2.029329 3.178857
vt 0.703578 0.667093
vt 0.756375 0.817692
vt 0.744921 0.817692
vt 0.192430 0.259099
vt 0.279087 0.609818
vt 0.192430 0.454200
vt 0.699519 0.041825
vt 0.807945 0.589101
vt 0.699519 0.589101
vt 0.136998 0.261457
vt 0.047054 0.575258
vt 0.047054 0.138041
vt 0.519501 0.454200
vt 0.606159 0.103482
vt 0.606159 0.609818
vt 0.102233 0.900066
vt 0.049435 0.749467
vt 0.143576 0.749467
vt 0.403214 0.957848
vt 0.429504 0.750843
vt 0.408203 0.957848
vt 0.953186 0.709128
vt 0.900134 0.041255
vt 0.953186 0.041255
vt 0.266404 0.755451
vt 0.240115 0.962456
vt 0.261415 0.755451
vt 0.354992 0.110526
vt 0.374286 0.105029
vt 0.374126 0.138041
vt 0.685147 0.589942
vt 0.682064 0.561586
vt 0.682064 0.671909
vt 0.700007 0.659041
vt 0.374286 0.608269
vt 0.354992 0.602773
vt 0.374126 0.575258
vt 0.165091 0.754283
vt 0.160698 0.777142
vt 0.685147 0.040984
vt 0.703090 0.028115
vt 0.027921 0.754283
vt 0.045864 0.741415
vt 0.027921 0.110526
vt 0.047214 0.105030
vt 0.807945 0.041825
vt 0.822316 0.040984
vt 0.825399 0.069340
vt 0.797719 0.667093
vt 0.819233 0.671909
vt 0.814841 0.694768
vt 0.822316 0.589942
vt 0.804373 0.602810
vt 0.047214 0.608270
vt 0.027921 0.602773
vt 0.490031 0.237092
vt 0.474134 0.242037
vt 0.473798 0.227953
vt 0.506914 0.240043
vt 0.505021 0.226007
vt 0.491483 0.260278
vt 0.519501 0.259099
vt 0.464069 0.261457
vt 0.474134 0.471262
vt 0.490031 0.476207
vt 0.473798 0.485346
vt 0.491483 0.453021
vt 0.464069 0.451842
vt 0.506914 0.473256
vt 0.505021 0.487292
vt 0.147063 0.242037
vt 0.164412 0.260278
vt 0.162959 0.237092
vt 0.146727 0.227953
vt 0.179843 0.240043
vt 0.177949 0.226007
vt 0.164412 0.453021
vt 0.147063 0.471262
vt 0.136998 0.451842
vt 0.179843 0.473256
vt 0.162959 0.476207
vt 0.177949 0.487292
vt 0.146727 0.485346
vt 0.607880 0.058732
vt 0.626222 0.063097
vt 0.448687 0.759956
vt 0.447704 0.790573
vt 0.969638 0.703725
vt 0.951821 0.722267
vt 0.626222 0.650202
vt 0.607880 0.654567
vt 0.969638 0.046657
vt 0.972079 0.081639
vt 0.287706 0.962456
vt 0.306889 0.953343
vt 0.289072 0.971884
vt 0.381913 0.750843
vt 0.362730 0.759956
vt 0.380548 0.741415
vt 0.299150 0.650202
vt 0.280809 0.654567
vt 0.900134 0.709128
vt 0.883682 0.703726
vt 0.881241 0.668744
vt 0.220932 0.953343
vt 0.221915 0.922726
vt 0.883682 0.046657
vt 0.901499 0.028116
vt 0.280809 0.058732
vt 0.299150 0.063097
vt 0.279087 0.103482
vt 0.682064 0.069340
vt 0.703090 0.602810
vt 0.686456 0.694768
vt 0.147147 0.741415
vt 0.804373 0.028116
vt 0.090779 0.900065
vt 0.032313 0.777142
vt 0.746538 0.826831
vt 0.409819 0.968933
vt 0.259799 0.744366
vt 0.268021 0.744366
vt 0.100616 0.909204
vt 0.972079 0.668744
vt 0.430870 0.741415
vt 0.901499 0.722267
vt 0.951821 0.028115
vt 0.238750 0.971884
vt 0.881241 0.081639
vt 0.305905 0.922726
vt 0.287247 0.741415
vt 0.429046 0.971884
vt 0.363713 0.790573
vt 0.356268 0.082170
vt 0.356268 0.631128
vt 0.029197 0.082170
vt 0.801290 0.659041
vt 0.825399 0.561586
vt 0.029197 0.631129
vt 0.490813 0.247521
vt 0.490813 0.465778
vt 0.163741 0.247521
vt 0.163741 0.465778
vt 0.625572 0.028115
vt 0.625572 0.685184
vt 0.298501 0.685184
vt 0.298501 0.028115
vt 0.724068 0.831776
vt 0.123086 0.914149
vt 0.069925 0.914149
vt 0.777229 0.831776
vt 0.754759 0.826831
vt 0.401598 0.968933
vt 0.092395 0.909204
vt 0.240572 0.741415
vt 0.382371 0.971884
vn 0.0000 0.8056 -0.5925
vn -0.9833 -0.1819 -0.0000
vn 0.0000 -1.0000 0.0000
vn -0.9361 0.3518 -0.0000
vn 0.9833 -0.1819 0.0000
vn 0.0000 0.8056 0.5925
vn 0.0000 -0.8725 -0.4887
vn 0.0000 1.0000 0.0000
vn 0.0000 -0.8725 0.4887
vn 0.9255 0.2886 -0.2452
vn 0.5333 -0.8404 -0.0970
vn 0.3749 0.5854 -0.7189
vn 0.9255 0.2886 0.2452
vn 0.3939 0.7551 0.5240
vn 0.4750 -0.7780 0.4112
vn -0.3749 0.5854 0.7189
vn -0.9255 0.2886 0.2452
vn -0.5333 -0.8404 0.0970
vn -0.3939 0.7551 -0.5240
vn -0.4750 -0.7780 -0.4112
vn -0.9255 0.2886 -0.2452
vn 0.4909 0.4617 -0.7388
vn 0.5181 -0.4691 -0.7152
vn 0.8794 -0.0430 -0.4741
vn 0.8648 0.1576 -0.4768
vn 0.4909 0.4617 0.7388
vn 0.8648 0.1576 0.4768
vn 0.8794 -0.0430 0.4741
vn 0.5181 -0.4691 0.7152
vn -0.8648 0.1576 0.4768
vn -0.4909 0.4617 0.7388
vn -0.5181 -0.4691 0.7152
vn -0.8794 -0.0430 0.4741
vn -0.8648 0.1576 -0.4768
vn -0.8794 -0.0430 -0.4741
vn -0.5181 -0.4691 -0.7152
vn -0.4909 0.4617 -0.7388
vn 0.9731 -0.1382 -0.1844
vn 0.4226 -0.7893 -0.4455
vn 0.5303 0.7906 -0.3061
vn 0.9731 -0.1382 0.1844
vn 0.4902 0.8702 0.0503
vn 0.4621 -0.6394 0.6145
vn -0.4621 -0.6394 -0.6145
vn -0.9731 -0.1382 -0.1844
vn -0.4902 0.8702 -0.0503
vn -0.4226 -0.7893 0.4455
vn -0.5303 0.7906 0.3061
vn -0.9731 -0.1382 0.1844
vn 0.9978 -0.0665 0.0000
vn 0.4133 -0.9106 0.0000
vn 0.0000 -0.9384 -0.3456
vn 0.0000 0.5511 -0.8344
vn 0.3270 0.8022 -0.4996
vn 0.7893 0.5780 -0.2070
vn -0.0000 0.5511 0.8344
vn -0.0000 -0.9384 0.3456
vn 0.7893 0.5780 0.2070
vn 0.3270 0.8022 0.4996
vn -0.9978 -0.0665 -0.0000
vn -0.4133 -0.9106 -0.0000
vn -0.3270 0.8022 0.4996
vn -0.7893 0.5780 0.2070
vn -0.7893 0.5780 -0.2070
vn -0.3270 0.8022 -0.4996
vn 0.9997 -0.0264 0.0000
vn 0.9795 0.2016 0.0000
vn 0.0000 0.4878 -0.8730
vn 0.0000 -0.5917 -0.8062
vn -0.0000 -0.5917 0.8062
vn 0.0000 0.4878 0.8730
vn -0.9997 -0.0264 -0.0000
vn -0.9795 0.2016 -0.0000
vn 0.4031 0.9151 0.0000
vn 0.9732 0.2299 0.0000
vn 0.0000 -0.6840 -0.7295
vn 0.0000 0.9533 -0.3022
vn -0.0000 0.9533 0.3022
vn -0.0000 -0.6840 0.7295
vn -0.4031 0.9151 0.0000
vn -0.9732 0.2299 -0.0000
vn 0.8614 -0.4759 0.1773
vn 0.3568 -0.8303 0.4281
vn -0.8614 -0.4759 0.1773
vn -0.3568 -0.8303 0.4281
vn 0.3568 -0.8303 -0.4281
vn 0.8614 -0.4759 -0.1773
vn -0.3568 -0.8303 -0.4281
vn -0.8614 -0.4759 -0.1773
vn 0.9361 0.3518 0.0000
vn 0.9372 0.3377 -0.0871
vn 0.4750 -0.7780 -0.4112
vn 0.3939 0.7551 -0.5240
vn 0.9372 0.3377 0.0871
vn 0.3749 0.5854 0.7189
vn 0.5333 -0.8404 0.0970
vn -0.3939 0.7551 0.5240
vn -0.9372 0.3377 0.0871
vn -0.4750 -0.7780 0.4112
vn -0.3749 0.5854 -0.7189
vn -0.5333 -0.8404 -0.0970
vn -0.9372 0.3377 -0.0871
vn 0.4167 0.3238 -0.8494
vn 0.4301 -0.3474 -0.8333
vn 0.8143 -0.1843 -0.5504
vn 0.7877 0.2691 -0.5542
vn 0.4167 0.3238 0.8494
vn 0.7877 0.2691 0.5542
vn 0.8143 -0.1843 0.5504
vn 0.4301 -0.3474 0.8333
vn -0.7877 0.2691 0.5542
vn -0.4167 0.3238 0.8494
vn -0.4301 -0.3474 0.8333
vn -0.8143 -0.1843 0.5504
vn -0.7877 0.2691 -0.5542
vn -0.8143 -0.1843 -0.5504
vn -0.4301 -0.3474 -0.8333
vn -0.4167 0.3238 -0.8494
vn 0.9835 -0.1682 -0.0660
vn 0.4621 -0.6394 -0.6145
vn 0.4902 0.8702 -0.0503
vn 0.9835 -0.1682 0.0660
vn 0.5303 0.7906 0.3061
vn 0.4226 -0.7893 0.4455
vn -0.4226 -0.7893 -0.4455
vn -0.9835 -0.1682 -0.0660
vn -0.5303 0.7906 -0.3061
vn -0.4621 -0.6394 0.6145
vn -0.4902 0.8702 0.0503
vn -0.9835 -0.1682 0.0660
usemtl Light_Green
s off
f 3/1/1 59/2/1 29/3/1
f 50/4/2 80/5/2 57/6/2
usemtl Material
f 10/7/3 23/8/3 2/9/3
f 47/10/4 24/11/4 16/12/4
usemtl Light_Red
f 40/13/5 65/14/5 72/15/5
usemtl Material
f 38/16/6 15/17/6 9/18/6
f 58/19/7 66/20/7 30/21/7
f 67/22/8 87/23/8 73/24/8
f 41/25/9 86/26/9 49/27/9
f 4/28/10 7/29/10 1/30/10
f 2/9/11 5/31/11 4/32/11
f 3/1/12 5/33/12 6/34/12
f 11/35/13 14/36/13 8/37/13
f 9/18/14 12/38/14 11/39/14
f 10/7/15 12/40/15 13/41/15
usemtl Light_Green
f 15/17/16 19/42/16 21/43/16
usemtl Material
f 20/44/17 18/45/17 16/12/17
usemtl Light_Green
f 17/46/18 19/47/18 20/48/18
usemtl Material
f 22/49/19 26/50/19 28/51/19
f 23/8/20 26/52/20 25/53/20
f 28/54/21 27/55/21 24/11/21
f 33/56/22 37/57/22 29/58/22
f 35/59/23 33/56/23 30/60/23
usemtl Light_Red
f 36/61/24 35/59/24 31/62/24
f 37/57/25 36/61/25 32/63/25
usemtl Material
f 42/64/26 46/65/26 38/66/26
usemtl Light_Red
f 44/67/27 42/64/27 39/68/27
f 45/69/28 44/67/28 40/13/28
usemtl Material
f 46/65/29 45/69/29 41/70/29
f 51/71/30 55/72/30 47/10/30
f 53/73/31 51/71/31 48/74/31
f 54/75/32 53/73/32 49/76/32
f 55/72/33 54/75/33 50/4/33
usemtl Light_Green
f 60/77/34 64/78/34 56/79/34
usemtl Material
f 62/80/35 60/77/35 57/6/35
f 63/81/36 62/80/36 58/82/36
usemtl Light_Green
f 64/78/37 63/81/37 59/83/37
usemtl Light_Red
f 68/84/38 71/85/38 65/14/38
f 66/20/39 69/86/39 68/87/39
f 67/22/40 69/88/40 70/89/40
f 75/90/41 78/91/41 72/15/41
f 73/24/42 76/92/42 75/93/42
f 74/94/43 76/95/43 77/96/43
usemtl Material
f 79/97/44 83/98/44 85/99/44
f 84/100/45 82/101/45 80/5/45
f 81/102/46 83/103/46 84/104/46
f 86/26/47 90/105/47 92/106/47
f 87/23/48 90/107/48 89/108/48
f 92/109/49 91/110/49 88/111/49
f 1/30/50 14/36/50 4/28/50
f 14/112/51 2/9/51 4/32/51
f 23/8/52 6/113/52 2/9/52
f 6/34/53 22/49/53 3/1/53
f 29/3/54 7/114/54 3/1/54
f 37/57/55 1/30/55 7/29/55
f 15/17/56 13/115/56 9/18/56
f 21/116/57 10/7/57 13/41/57
f 8/37/58 42/64/58 11/35/58
f 11/39/59 38/16/59 9/18/59
f 24/11/60 20/44/60 16/12/60
f 20/48/61 23/8/61 17/46/61
usemtl Light_Green
f 48/117/62 18/118/62 15/17/62
usemtl Material
f 51/71/63 16/12/63 18/45/63
f 24/11/64 64/78/64 28/54/64
usemtl Light_Green
f 28/51/65 59/2/65 22/49/65
usemtl Light_Red
f 31/62/66 44/67/66 36/61/66
f 44/67/67 32/63/67 36/61/67
usemtl Material
f 59/2/68 33/119/68 29/3/68
f 33/120/69 58/19/69 30/21/69
f 41/25/70 53/121/70 46/122/70
f 46/123/71 48/117/71 38/16/71
usemtl Light_Green
f 57/6/72 55/72/72 50/4/72
f 60/77/73 47/10/73 55/72/73
usemtl Light_Red
f 73/24/74 71/124/74 67/22/74
f 75/90/75 65/14/75 71/85/75
usemtl Material
f 66/20/76 85/99/76 70/125/76
f 85/126/77 67/22/77 70/89/77
f 73/24/78 89/108/78 77/127/78
f 89/128/79 74/94/79 77/96/79
f 81/102/80 91/129/80 87/23/80
f 84/100/81 88/111/81 91/110/81
usemtl Light_Red
f 72/15/82 45/69/82 40/13/82
f 78/130/83 41/25/83 45/131/83
usemtl Material
f 88/111/84 54/75/84 92/109/84
f 92/106/85 49/27/85 86/26/85
usemtl Light_Red
f 30/21/86 68/87/86 35/132/86
f 35/59/87 65/14/87 31/62/87
usemtl Material
f 58/19/88 82/133/88 79/97/88
f 62/80/89 80/5/89 82/101/89
f 32/63/90 8/37/90 1/30/90
usemtl Light_Green
f 3/1/1 22/49/1 59/2/1
f 50/4/2 88/111/2 80/5/2
usemtl Material
f 10/7/3 17/46/3 23/8/3
f 47/10/4 56/79/4 24/11/4
usemtl Light_Red
f 40/13/5 31/62/5 65/14/5
usemtl Material
f 38/16/6 48/117/6 15/17/6
f 58/19/7 79/97/7 66/20/7
f 67/22/8 81/102/8 87/23/8
f 41/25/9 74/94/9 86/26/9
f 4/28/91 5/134/91 7/29/91
f 2/9/92 6/113/92 5/31/92
f 3/1/93 7/114/93 5/33/93
f 11/35/94 12/135/94 14/36/94
f 9/18/95 13/115/95 12/38/95
f 10/7/96 14/112/96 12/40/96
usemtl Light_Green
f 15/17/97 18/118/97 19/42/97
usemtl Material
f 20/44/98 19/136/98 18/45/98
usemtl Light_Green
f 17/46/99 21/116/99 19/47/99
usemtl Material
f 22/49/100 25/137/100 26/50/100
f 23/8/101 27/138/101 26/52/101
f 28/54/102 26/139/102 27/55/102
f 33/56/103 34/140/103 37/57/103
f 35/59/104 34/140/104 33/56/104
usemtl Light_Red
f 36/61/105 34/140/105 35/59/105
f 37/57/106 34/140/106 36/61/106
usemtl Material
f 42/64/107 43/141/107 46/65/107
usemtl Light_Red
f 44/67/108 43/141/108 42/64/108
f 45/69/109 43/141/109 44/67/109
usemtl Material
f 46/65/110 43/141/110 45/69/110
f 51/71/111 52/142/111 55/72/111
f 53/73/112 52/142/112 51/71/112
f 54/75/113 52/142/113 53/73/113
f 55/72/114 52/142/114 54/75/114
usemtl Light_Green
f 60/77/115 61/143/115 64/78/115
usemtl Material
f 62/80/116 61/143/116 60/77/116
f 63/81/117 61/143/117 62/80/117
usemtl Light_Green
f 64/78/118 61/143/118 63/81/118
usemtl Light_Red
f 68/84/119 69/144/119 71/85/119
f 66/20/120 70/125/120 69/86/120
f 67/22/121 71/124/121 69/88/121
f 75/90/122 76/145/122 78/91/122
f 73/24/123 77/127/123 76/92/123
f 74/94/124 78/130/124 76/95/124
usemtl Material
f 79/97/125 82/133/125 83/98/125
f 84/100/126 83/146/126 82/101/126
f 81/102/127 85/126/127 83/103/127
f 86/26/128 89/128/128 90/105/128
f 87/23/129 91/129/129 90/107/129
f 92/109/130 90/147/130 91/110/130
f 1/30/50 8/37/50 14/36/50
f 14/112/51 10/7/51 2/9/51
f 23/8/52 25/53/52 6/113/52
f 6/34/53 25/137/53 22/49/53
f 29/3/54 37/148/54 7/114/54
f 37/57/55 32/63/55 1/30/55
f 15/17/56 21/43/56 13/115/56
f 21/116/57 17/46/57 10/7/57
f 8/37/58 39/68/58 42/64/58
f 11/39/59 42/149/59 38/16/59
f 24/11/60 27/55/60 20/44/60
f 20/48/61 27/138/61 23/8/61
usemtl Light_Green
f 48/117/62 51/150/62 18/118/62
usemtl Material
f 51/71/63 47/10/63 16/12/63
f 24/11/64 56/79/64 64/78/64
usemtl Light_Green
f 28/51/65 64/151/65 59/2/65
usemtl Light_Red
f 31/62/66 40/13/66 44/67/66
f 44/67/67 39/68/67 32/63/67
usemtl Material
f 59/2/68 63/152/68 33/119/68
f 33/120/69 63/153/69 58/19/69
f 41/25/70 49/27/70 53/121/70
f 46/123/71 53/154/71 48/117/71
usemtl Light_Green
f 57/6/72 60/77/72 55/72/72
f 60/77/73 56/79/73 47/10/73
usemtl Light_Red
f 73/24/74 75/93/74 71/124/74
f 75/90/75 72/15/75 65/14/75
usemtl Material
f 66/20/76 79/97/76 85/99/76
f 85/126/77 81/102/77 67/22/77
f 73/24/78 87/23/78 89/108/78
f 89/128/79 86/26/79 74/94/79
f 81/102/80 84/104/80 91/129/80
f 84/100/81 80/5/81 88/111/81
usemtl Light_Red
f 72/15/82 78/91/82 45/69/82
f 78/130/83 74/94/83 41/25/83
usemtl Material
f 88/111/84 50/4/84 54/75/84
f 92/106/85 54/155/85 49/27/85
usemtl Light_Red
f 30/21/86 66/20/86 68/87/86
f 35/59/87 68/84/87 65/14/87
usemtl Material
f 58/19/88 62/156/88 82/133/88
f 62/80/89 57/6/89 80/5/89
f 32/63/90 39/68/90 8/37/90
